<?xml version="1.0" encoding="UTF-8"?>
<!DOCTYPE svg PUBLIC "-//W3C//DTD SVG 1.1//EN" "http://www.w3.org/Graphics/SVG/1.1/DTD/svg11.dtd">
<svg xmlns="http://www.w3.org/2000/svg" version="1.1" width="1043px" height="1042px" style="shape-rendering:geometricPrecision; text-rendering:geometricPrecision; image-rendering:optimizeQuality; fill-rule:evenodd; clip-rule:evenodd" xmlns:xlink="http://www.w3.org/1999/xlink">
<g><path style="opacity:0.998" fill="#42428e" d="M 488.5,-0.5 C 510.167,-0.5 531.833,-0.5 553.5,-0.5C 673.384,8.32021 778.051,52.3202 867.5,131.5C 838.167,161.167 808.833,190.833 779.5,220.5C 784.46,197.202 788.96,173.869 793,150.5C 791.698,151.085 790.531,151.751 789.5,152.5C 664.856,204.444 553.189,275.944 454.5,367C 385.936,431.331 331.436,505.831 291,590.5C 265.142,647.935 248.975,707.935 242.5,770.5C 207.804,805.195 173.471,840.195 139.5,875.5C 64.6148,795.201 19.4482,700.201 4,590.5C 2.21763,575.708 0.71763,561.042 -0.5,546.5C -0.5,529.167 -0.5,511.833 -0.5,494.5C 11.4678,330.885 82.1345,199.385 211.5,100C 294.099,40.0744 386.432,6.57443 488.5,-0.5 Z"/></g>
<g><path style="opacity:0.998" fill="#312782" d="M 867.5,131.5 C 963.663,217.801 1020.5,325.468 1038,454.5C 1040.25,474.268 1041.75,493.935 1042.5,513.5C 1042.5,518.167 1042.5,522.833 1042.5,527.5C 1036.08,699.193 965.077,837.027 829.5,941C 745.585,1001.36 651.918,1034.86 548.5,1041.5C 530.167,1041.5 511.833,1041.5 493.5,1041.5C 371.169,1033.64 264.169,989.477 172.5,909C 160.629,898.629 149.629,887.463 139.5,875.5C 173.471,840.195 207.804,805.195 242.5,770.5C 241.997,775.172 241.831,779.839 242,784.5C 245.753,777.996 249.253,771.329 252.5,764.5C 254.93,759.963 257.597,755.63 260.5,751.5C 367.835,642.165 474.835,532.498 581.5,422.5C 636.537,387.565 694.704,358.565 756,335.5C 764.279,297.27 772.113,258.936 779.5,220.5C 808.833,190.833 838.167,161.167 867.5,131.5 Z"/></g>
<g><path style="opacity:1" fill="#f1f1f8" d="M 779.5,220.5 C 772.113,258.936 764.279,297.27 756,335.5C 694.704,358.565 636.537,387.565 581.5,422.5C 460.169,498.662 360.002,596.662 281,716.5C 273.639,727.893 266.806,739.56 260.5,751.5C 257.597,755.63 254.93,759.963 252.5,764.5C 251.957,764.44 251.624,764.107 251.5,763.5C 329.416,600.436 432.416,455.27 560.5,328C 630.184,260.44 706.517,201.94 789.5,152.5C 790.531,151.751 791.698,151.085 793,150.5C 788.96,173.869 784.46,197.202 779.5,220.5 Z"/></g>
<g><path style="opacity:1" fill="#d2d2d2" d="M 789.5,152.5 C 706.517,201.94 630.184,260.44 560.5,328C 432.416,455.27 329.416,600.436 251.5,763.5C 251.624,764.107 251.957,764.44 252.5,764.5C 249.253,771.329 245.753,777.996 242,784.5C 241.831,779.839 241.997,775.172 242.5,770.5C 248.975,707.935 265.142,647.935 291,590.5C 331.436,505.831 385.936,431.331 454.5,367C 553.189,275.944 664.856,204.444 789.5,152.5 Z"/></g>
<g><path style="opacity:0.999" fill="#42428e" d="M 581.5,422.5 C 474.835,532.498 367.835,642.165 260.5,751.5C 266.806,739.56 273.639,727.893 281,716.5C 360.002,596.662 460.169,498.662 581.5,422.5 Z"/></g>
<g><path style="opacity:1" fill="#f1f1f8" d="M 360.5,847.5 C 358.038,831.349 357.871,815.015 360,798.5C 363.467,767.786 371.467,738.452 384,710.5C 409.983,657.497 444.816,610.997 488.5,571C 520.34,542.091 554.34,516.091 590.5,493C 592.063,492.241 593.063,491.074 593.5,489.5C 605.023,482.148 616.856,475.148 629,468.5C 616.896,524.422 604.063,580.255 590.5,636C 510.683,674.464 442.517,727.964 386,796.5C 373.781,811.605 365.281,828.605 360.5,847.5 Z"/></g>
<g><path style="opacity:1" fill="#d2d2d2" d="M 593.5,489.5 C 593.063,491.074 592.063,492.241 590.5,493C 554.34,516.091 520.34,542.091 488.5,571C 444.816,610.997 409.983,657.497 384,710.5C 371.467,738.452 363.467,767.786 360,798.5C 357.871,815.015 358.038,831.349 360.5,847.5C 359.168,861.332 364.168,872.165 375.5,880C 390.487,887.946 406.487,892.279 423.5,893C 435.495,893.5 447.495,893.667 459.5,893.5C 463.371,893.185 467.038,893.518 470.5,894.5C 441.129,908.68 410.462,919.18 378.5,926C 356.744,929.65 335.077,929.317 313.5,925C 287.712,917.544 270.878,901.044 263,875.5C 255.06,842.682 258.393,811.015 273,780.5C 288.879,747.386 309.212,717.386 334,690.5C 378.939,643.208 427.772,600.708 480.5,563C 517.172,536.996 554.838,512.496 593.5,489.5 Z"/></g>
<g><path style="opacity:1" fill="#7d77a8" d="M 459.5,893.5 C 463.646,892.353 467.98,892.186 472.5,893C 471.956,893.717 471.289,894.217 470.5,894.5C 467.038,893.518 463.371,893.185 459.5,893.5 Z"/></g>
</svg>
